<svg xmlns="http://www.w3.org/2000/svg" width="900" height="460" viewBox="0 0 900 460">
<rect width="100%" height="100%" fill="white"/>
<text x="450.0" y="30" text-anchor="middle" font-size="22" font-weight="700">Band power by EEG frequency range</text>
<line x1="86" y1="358" x2="806" y2="358" stroke="#263238" stroke-width="1.5"/>
<line x1="86" y1="58" x2="86" y2="358" stroke="#263238" stroke-width="1.5"/>
<text x="446.0" y="430" text-anchor="middle" font-size="15">Frequency band</text>
<text x="20" y="208.0" transform="rotate(-90 20 208.0)" text-anchor="middle" font-size="15">Power, uV^2/Hz</text>
<text x="158.0" y="390" text-anchor="middle" font-size="13">Delta</text>
<rect x="104.0" y="357.1" width="28.1" height="0.9" fill="#2f6fed"/>
<rect x="140.0" y="317.6" width="28.1" height="40.4" fill="#0f9d7a"/>
<rect x="176.0" y="357.4" width="28.1" height="0.6" fill="#d9822b"/>
<text x="302.0" y="390" text-anchor="middle" font-size="13">Theta</text>
<rect x="248.0" y="342.5" width="28.1" height="15.5" fill="#2f6fed"/>
<rect x="284.0" y="303.0" width="28.1" height="55.0" fill="#0f9d7a"/>
<rect x="320.0" y="345.9" width="28.1" height="12.1" fill="#d9822b"/>
<text x="446.0" y="390" text-anchor="middle" font-size="13">Alpha</text>
<rect x="392.0" y="228.8" width="28.1" height="129.2" fill="#2f6fed"/>
<rect x="428.0" y="188.9" width="28.1" height="169.1" fill="#0f9d7a"/>
<rect x="464.0" y="255.4" width="28.1" height="102.6" fill="#d9822b"/>
<text x="590.0" y="390" text-anchor="middle" font-size="13">Beta</text>
<rect x="536.0" y="350.5" width="28.1" height="7.5" fill="#2f6fed"/>
<rect x="572.0" y="190.4" width="28.1" height="167.6" fill="#0f9d7a"/>
<rect x="608.0" y="352.2" width="28.1" height="5.8" fill="#d9822b"/>
<text x="734.0" y="390" text-anchor="middle" font-size="13">Gamma</text>
<rect x="680.0" y="353.3" width="28.1" height="4.7" fill="#2f6fed"/>
<rect x="716.0" y="58.0" width="28.1" height="300.0" fill="#0f9d7a"/>
<rect x="752.0" y="354.5" width="28.1" height="3.5" fill="#d9822b"/>
<text x="815" y="65" font-size="13" font-weight="700">Legend</text>
<rect x="825" y="88" width="14" height="14" fill="#2f6fed"/>
<text x="847" y="100" font-size="12">demo_clean_rest</text>
<rect x="825" y="114" width="14" height="14" fill="#0f9d7a"/>
<text x="847" y="126" font-size="12">demo_noisy_fz</text>
<rect x="825" y="140" width="14" height="14" fill="#d9822b"/>
<text x="847" y="152" font-size="12">demo_flat_pz</text>
</svg>